<svg width="612" height="697" viewBox="0 0 612 697" fill="none" xmlns="http://www.w3.org/2000/svg">
<g clip-path="url(#clip0_58_115)">
<rect width="283.57" height="271.401" rx="15" transform="matrix(0.879079 0.476676 -0.445688 0.895188 215.371 207.724)" fill="#0097E6"/>
<rect width="273.307" height="261.541" rx="15" transform="matrix(0.879079 0.476676 -0.445688 0.895188 214.172 206.472)" fill="#D9D9D9" fill-opacity="0.94"/>
<path d="M14.4193 195.678C22.0725 190.223 31.9223 202.245 26.5642 209.73C21.1479 217.296 9.30672 215.152 5.22933 207.426C0.0269316 197.569 5.20763 185.844 13.5918 180.121C23.1158 173.621 34.7883 173.255 45.7854 173.864C56.8929 174.48 67.7322 175.296 78.7979 173.637C88.1649 172.208 97.3173 169.533 106.031 165.678C123.948 157.835 139.68 145.415 151.776 129.565C157.42 122.103 162.695 113.716 165.926 104.782C168.415 97.9011 169.594 88.8517 166.067 82.1163C165.3 80.601 164.219 79.2826 162.902 78.257C161.585 77.2314 160.066 76.5242 158.454 76.1868C156.842 75.8494 155.179 75.8903 153.584 76.3064C151.989 76.7226 150.503 77.5036 149.234 78.5927C143.357 83.61 141.77 92.9265 146.264 99.4184C151.085 106.385 160.184 108.772 168.017 107.504C178.904 105.741 187.72 97.7321 196.054 90.8366L257.78 39.7689C267.958 31.3481 278.032 22.764 288.341 14.5182C296.725 7.81261 306.955 1.31074 317.875 4.89239C322.276 6.33617 326.712 9.75528 327.812 14.6676C328.223 16.9169 328.038 19.2406 327.275 21.388C326.512 23.5354 325.201 25.4251 323.484 26.8534C322.699 27.5477 321.785 28.0644 320.798 28.3708C319.812 28.6772 318.775 28.7665 317.754 28.633C316.733 28.4996 315.749 28.1464 314.866 27.5957C313.983 27.045 313.219 26.309 312.623 25.4344C310.322 22.0899 310.133 17.3217 311.458 13.5427C315 3.44317 327.997 2.38653 336.67 3.20792C346.903 4.28857 356.789 7.67906 365.638 13.1437C383.967 24.2376 397.522 42.2846 405.473 62.5725C414.282 85.0516 416.996 109.926 416.637 134.058C416.563 138.979 416.236 144.424 413.578 148.667C410.974 152.824 406.432 154.082 402.357 151.302C401.03 150.397 399.324 148.634 399.67 146.774C400.105 144.439 404.571 144.421 406.359 144.51C411.255 144.754 415.883 147.326 419.39 150.793C427.723 159.033 428.371 171.64 427.285 182.85C426.092 195.156 422.688 207.396 424.04 219.854C426.254 240.263 442.325 251.605 458.109 260.987C466.193 265.793 474.453 270.386 481.722 276.5C489.131 282.754 495.617 290.11 500.972 298.331C511.553 314.553 517.791 333.422 519.042 352.993C519.672 362.771 518.931 372.593 516.842 382.149C514.766 391.495 511.495 403.277 502.877 408.298C500.823 409.522 498.459 410.06 496.103 409.84C493.746 409.619 491.512 408.651 489.7 407.065C486.208 404.145 484.502 398.962 488.109 395.314C491.097 392.291 495.88 392.928 499.486 394.157C503.827 395.636 507.206 398.398 510.442 401.659C516.61 407.877 523.832 415.51 533.216 413.524C534.95 413.157 534.217 410.393 532.485 410.759C521.156 413.156 514.325 399.435 505.97 394.152C499.922 390.328 489.59 387.484 484.863 394.943C479.762 402.992 487.964 411.677 495.586 412.713C505.496 414.061 512.366 403.964 515.693 395.629C523.41 376.3 523.649 353.635 518.929 333.507C514.211 313.067 504.009 294.447 489.515 279.822C482.2 272.556 473.813 266.986 465.064 261.801C456.232 256.567 447.028 251.546 439.471 244.362C435.285 240.516 431.955 235.764 429.713 230.438C427.471 225.112 426.37 219.341 426.488 213.527C426.569 200.135 430.7 187.139 430.443 173.721C430.229 162.596 426.601 151.732 417.314 145.469C413.487 142.763 408.917 141.434 404.299 141.683C402.42 141.844 399.781 142.174 398.234 143.399C396.988 144.386 396.751 146.697 397.003 148.19C397.6 151.738 400.82 154.202 403.947 155.19C405.849 155.826 407.89 155.852 409.805 155.263C411.72 154.674 413.421 153.498 414.686 151.887C417.694 148.268 418.738 143.441 419.164 138.793C419.74 132.495 419.421 126.027 419.155 119.719C418.073 94.0855 413.212 67.8383 400.428 45.5755C389.562 26.6515 372.662 10.784 352.398 3.76404C342.849 0.45612 331.522 -1.52633 321.669 1.48217C313.192 4.07062 306.696 11.341 308.096 20.9702C309.281 29.1214 317.386 34.7593 324.528 29.6145C326.213 28.4005 327.627 26.8218 328.673 24.9863C329.719 23.1508 330.372 21.1017 330.589 18.9789C330.805 16.8561 330.58 14.7096 329.928 12.686C329.275 10.6623 328.211 8.80925 326.809 7.25324C319.904 -0.281556 308.646 -0.22733 300.031 3.6019C294.843 5.90788 290.249 9.36289 285.819 12.9521C280.172 17.5273 274.604 22.2121 269.002 26.8469L201.516 82.681C196.189 87.0878 190.948 91.6556 185.444 95.8211C180.307 99.7082 174.641 103.309 168.318 104.557C159.414 106.314 145.319 101.705 146.399 89.9366C146.818 85.3663 149.723 80.3182 154.164 79.0076C158.516 77.723 162.625 80.6408 164.243 84.7715C167.811 93.8778 163.622 104.294 159.455 112.289C149.138 132.082 132.865 148.202 113.797 158.691C104.253 163.954 94.0232 167.737 83.4308 169.921C71.5326 172.357 59.8576 171.88 47.8278 171.12C36.1665 170.383 23.9211 170.458 13.5273 176.791C5.00471 181.984 -0.680727 191.4 0.685422 201.893C1.87177 211.006 8.88479 217.97 17.9297 217.201C25.5216 216.555 33.1491 209.799 30.4556 201.218C28.2251 194.112 19.6155 188.509 13.0304 193.202C11.5776 194.238 12.9524 196.724 14.4192 195.678H14.4193Z" fill="#3F3D56"/>
<path d="M597.525 402.694H530.86C529.818 402.695 528.82 403.127 528.083 403.895C527.347 404.662 526.932 405.703 526.931 406.788V450.04C526.932 451.125 527.347 452.166 528.083 452.933C528.82 453.701 529.818 454.133 530.86 454.134H597.525C598.566 454.133 599.565 453.701 600.301 452.933C601.038 452.166 601.452 451.125 601.453 450.04V406.788C601.452 405.703 601.038 404.662 600.301 403.895C599.565 403.127 598.566 402.695 597.525 402.694V402.694Z" fill="#F2F2F2"/>
<path d="M597.525 402.694H530.86C529.818 402.695 528.82 403.127 528.083 403.895C527.347 404.662 526.932 405.703 526.931 406.788V450.04C526.932 451.125 527.347 452.166 528.083 452.933C528.82 453.701 529.818 454.133 530.86 454.134H597.525C598.566 454.133 599.565 453.701 600.301 452.933C601.038 452.166 601.452 451.125 601.453 450.04V406.788C601.452 405.703 601.038 404.662 600.301 403.895C599.565 403.127 598.566 402.695 597.525 402.694V402.694ZM598.814 433.763C598.798 438.166 597.127 442.387 594.158 445.521C591.19 448.655 587.161 450.452 582.936 450.526C576.172 450.618 586.679 450.654 578.521 450.654C559.865 450.654 540.413 450.468 533.155 450.347C532.2 450.327 531.29 449.918 530.621 449.208C529.951 448.499 529.574 447.544 529.57 446.549V406.791C529.571 406.435 529.707 406.093 529.948 405.841C530.19 405.588 530.517 405.446 530.859 405.445H597.522C597.864 405.445 598.192 405.587 598.434 405.838C598.676 406.09 598.813 406.431 598.814 406.788L598.814 433.763Z" fill="#E6E6E6"/>
<path d="M589.318 377.788H538.526C538.077 377.789 537.639 377.934 537.271 378.204C536.904 378.474 536.626 378.855 536.474 379.296L528.63 402.23C528.513 402.573 528.476 402.939 528.523 403.299C528.571 403.66 528.7 404.003 528.901 404.3C529.101 404.597 529.368 404.839 529.677 405.007C529.987 405.175 530.33 405.262 530.679 405.263L598.799 405.389H598.802C599.162 405.389 599.517 405.296 599.835 405.118C600.152 404.939 600.422 404.682 600.621 404.368C600.819 404.055 600.94 403.695 600.972 403.321C601.004 402.946 600.946 402.57 600.804 402.224L600.685 402.277L600.804 402.224L591.32 379.164C591.153 378.756 590.874 378.407 590.518 378.163C590.162 377.918 589.745 377.788 589.318 377.788V377.788Z" fill="#E6E6E6"/>
<path d="M600.981 402.722C600.981 403.03 600.921 403.334 600.804 403.617L591.321 421.368C591.152 421.776 590.873 422.123 590.517 422.367C590.161 422.611 589.744 422.742 589.318 422.742H538.527C538.078 422.742 537.639 422.597 537.272 422.327C536.904 422.057 536.625 421.676 536.473 421.235L528.63 403.611C528.534 403.33 528.492 403.032 528.507 402.734C528.521 402.437 528.592 402.145 528.714 401.876C528.837 401.606 529.009 401.365 529.222 401.165C529.434 400.965 529.682 400.811 529.951 400.711C530.185 400.623 530.431 400.578 530.678 400.578L539 400.562L542.396 400.556L587.086 400.474L590.484 400.468L598.8 400.451H598.802C599.379 400.452 599.934 400.691 600.342 401.117C600.751 401.543 600.981 402.12 600.981 402.722V402.722Z" fill="#E6E6E6"/>
<path d="M535.857 435.138C536.865 435.138 550.695 436.019 550.695 437.069C550.695 438.118 536.865 438.939 535.857 438.939C535.374 438.939 534.91 438.739 534.568 438.382C534.226 438.026 534.034 437.543 534.034 437.039C534.034 436.535 534.226 436.051 534.568 435.695C534.91 435.338 535.374 435.138 535.857 435.138V435.138Z" fill="#E6E6E6"/>
<path d="M586.155 363.836H543.329C542.181 363.838 541.08 364.314 540.269 365.159C539.457 366.005 539.001 367.152 539 368.348V422.742H589.318C589.731 422.744 590.136 422.621 590.484 422.389V368.348C590.483 367.152 590.026 366.005 589.215 365.159C588.403 364.314 587.303 363.838 586.155 363.836V363.836Z" fill="#F2F2F2"/>
<path d="M569.809 367.494H546.339C545.294 367.495 544.292 367.928 543.553 368.698C542.813 369.468 542.398 370.512 542.396 371.601V422.742H587.086V385.498C587.081 380.725 585.259 376.149 582.02 372.773C578.781 369.398 574.39 367.5 569.809 367.494V367.494Z" fill="white"/>
<path d="M579.473 418.201H550.01C549.755 418.201 549.511 418.306 549.331 418.494C549.151 418.681 549.049 418.936 549.049 419.201C549.049 419.467 549.151 419.721 549.331 419.909C549.511 420.096 549.755 420.202 550.01 420.202H579.473C579.727 420.202 579.972 420.096 580.152 419.909C580.332 419.721 580.433 419.467 580.433 419.201C580.433 418.936 580.332 418.681 580.152 418.494C579.972 418.306 579.727 418.201 579.473 418.201Z" fill="#E4E4E4"/>
<path d="M579.472 414.243H550.009C549.754 414.243 549.51 414.348 549.329 414.536C549.149 414.724 549.048 414.979 549.048 415.244C549.048 415.51 549.149 415.765 549.329 415.953C549.51 416.141 549.754 416.246 550.009 416.246H579.472C579.598 416.246 579.723 416.22 579.84 416.17C579.957 416.12 580.063 416.046 580.152 415.953C580.241 415.86 580.312 415.749 580.36 415.628C580.408 415.506 580.433 415.376 580.433 415.244C580.433 415.113 580.408 414.983 580.36 414.861C580.312 414.74 580.241 414.629 580.152 414.536C580.063 414.443 579.957 414.369 579.84 414.319C579.723 414.269 579.598 414.243 579.472 414.243V414.243Z" fill="#E4E4E4"/>
<path d="M562.781 410.287H550.01C549.755 410.287 549.511 410.392 549.331 410.58C549.151 410.768 549.049 411.022 549.049 411.288C549.049 411.553 549.151 411.808 549.331 411.995C549.511 412.183 549.755 412.288 550.01 412.288H562.781C563.036 412.288 563.28 412.183 563.46 411.995C563.64 411.808 563.742 411.553 563.742 411.288C563.742 411.022 563.64 410.768 563.46 410.58C563.28 410.392 563.036 410.287 562.781 410.287Z" fill="#E4E4E4"/>
<path d="M579.473 402H550.01C549.755 402 549.511 402.106 549.332 402.294C549.152 402.482 549.051 402.736 549.051 403.001C549.051 403.266 549.152 403.521 549.332 403.708C549.511 403.896 549.755 404.002 550.01 404.003H579.473C579.599 404.003 579.724 403.978 579.841 403.928C579.958 403.877 580.065 403.804 580.154 403.711C580.244 403.618 580.315 403.507 580.363 403.385C580.412 403.264 580.437 403.133 580.437 403.001C580.437 402.869 580.412 402.739 580.363 402.617C580.315 402.495 580.244 402.385 580.154 402.292C580.065 402.199 579.958 402.125 579.841 402.075C579.724 402.025 579.599 401.999 579.473 402V402Z" fill="#E4E4E4"/>
<path d="M579.473 398.044H550.01C549.755 398.044 549.511 398.149 549.331 398.337C549.151 398.524 549.049 398.779 549.049 399.044C549.049 399.31 549.151 399.564 549.331 399.752C549.511 399.94 549.755 400.045 550.01 400.045H579.473C579.727 400.045 579.972 399.94 580.152 399.752C580.332 399.564 580.433 399.31 580.433 399.044C580.433 398.779 580.332 398.524 580.152 398.337C579.972 398.149 579.727 398.044 579.473 398.044V398.044Z" fill="#E4E4E4"/>
<path d="M562.781 394.086H550.009C549.754 394.086 549.51 394.191 549.329 394.379C549.149 394.567 549.048 394.822 549.048 395.088C549.048 395.353 549.149 395.608 549.329 395.796C549.51 395.984 549.754 396.089 550.009 396.089H562.781C563.036 396.089 563.28 395.984 563.461 395.796C563.641 395.608 563.742 395.353 563.742 395.088C563.742 394.822 563.641 394.567 563.461 394.379C563.28 394.191 563.036 394.086 562.781 394.086V394.086Z" fill="#E4E4E4"/>
<path d="M579.473 385.798H550.01C549.755 385.799 549.511 385.905 549.332 386.093C549.152 386.281 549.051 386.535 549.051 386.8C549.051 387.065 549.152 387.32 549.332 387.507C549.511 387.695 549.755 387.801 550.01 387.802H579.473C579.599 387.802 579.724 387.777 579.841 387.727C579.958 387.676 580.065 387.603 580.154 387.51C580.244 387.417 580.315 387.306 580.363 387.184C580.412 387.062 580.437 386.932 580.437 386.8C580.437 386.668 580.412 386.538 580.363 386.416C580.315 386.294 580.244 386.184 580.154 386.091C580.065 385.998 579.958 385.924 579.841 385.874C579.724 385.824 579.599 385.798 579.473 385.798V385.798Z" fill="#E4E4E4"/>
<path d="M579.473 381.843H550.01C549.755 381.844 549.511 381.949 549.332 382.137C549.152 382.325 549.051 382.579 549.051 382.844C549.051 383.11 549.152 383.364 549.332 383.552C549.511 383.739 549.755 383.845 550.01 383.846H579.473C579.599 383.847 579.724 383.821 579.841 383.771C579.958 383.721 580.065 383.647 580.154 383.554C580.244 383.461 580.315 383.35 580.363 383.229C580.412 383.107 580.437 382.976 580.437 382.844C580.437 382.713 580.412 382.582 580.363 382.46C580.315 382.339 580.244 382.228 580.154 382.135C580.065 382.042 579.958 381.968 579.841 381.918C579.724 381.868 579.599 381.842 579.473 381.843V381.843Z" fill="#E4E4E4"/>
<path d="M562.781 377.885H550.009C549.754 377.885 549.51 377.99 549.329 378.178C549.149 378.366 549.048 378.621 549.048 378.887C549.048 379.152 549.149 379.407 549.329 379.595C549.51 379.783 549.754 379.888 550.009 379.888H562.781C562.907 379.888 563.032 379.862 563.149 379.812C563.265 379.762 563.371 379.688 563.461 379.595C563.55 379.502 563.621 379.391 563.669 379.27C563.717 379.148 563.742 379.018 563.742 378.887C563.742 378.755 563.717 378.625 563.669 378.503C563.621 378.382 563.55 378.271 563.461 378.178C563.371 378.085 563.265 378.011 563.149 377.961C563.032 377.911 562.907 377.885 562.781 377.885V377.885Z" fill="#E4E4E4"/>
<path d="M245.482 190.32C261.183 190.32 273.912 177.056 273.912 160.694C273.912 144.331 261.183 131.067 245.482 131.067C229.78 131.067 217.052 144.331 217.052 160.694C217.052 177.056 229.78 190.32 245.482 190.32Z" fill="#FFB6B6"/>
<path d="M277.935 143.73C274.944 138.909 269.332 135.696 263.892 136.599C263.386 132.98 261.936 129.576 259.702 126.757C257.468 123.938 254.534 121.812 251.22 120.609C247.907 119.407 244.34 119.176 240.909 119.94C237.478 120.704 234.313 122.434 231.76 124.942C230.921 124.326 229.943 123.947 228.921 123.84C227.899 123.734 226.869 123.904 225.929 124.334C224.056 125.222 222.427 126.584 221.191 128.297C218.069 132.354 216.061 137.217 215.381 142.369C214.701 147.521 215.375 152.768 217.329 157.553C216.665 155.034 219.087 152.664 221.535 152.099C223.982 151.534 226.549 152.068 229.031 151.7C232.212 151.229 235.072 149.306 238.258 148.873C240.935 148.509 243.628 149.224 246.239 149.942C248.85 150.659 251.536 151.39 254.217 151.058C256.899 150.726 260.353 161.316 260.307 168.775C260.298 170.188 260.577 172.003 261.903 172.303C263.535 172.673 264.481 170.325 266.035 169.685C266.751 169.471 267.519 169.555 268.177 169.92C268.835 170.284 269.331 170.9 269.561 171.639C269.757 172.389 269.778 173.178 269.622 173.938C269.467 174.699 269.139 175.41 268.666 176.012C267.711 177.206 266.577 178.231 265.309 179.047L265.949 179.602C267.013 181.067 269.221 181.131 270.755 180.224C272.222 179.189 273.411 177.779 274.206 176.129C277.045 171.209 279.535 165.967 280.537 160.322C281.538 154.677 280.925 148.551 277.935 143.73Z" fill="#2F2E41"/>
<path d="M278.831 679.506L263.478 679.504L256.173 617.788L278.835 617.789L278.831 679.506Z" fill="#FFB6B6"/>
<path d="M279.373 696.197L232.156 696.195V695.573C232.157 690.493 234.093 685.622 237.539 682.031C240.986 678.44 245.66 676.422 250.534 676.421H250.535L259.16 669.603L275.252 676.423L279.373 676.423L279.373 696.197Z" fill="#2F2E41"/>
<path d="M306.519 651.254L294.474 661.175L252.014 617.482L269.793 602.836L306.519 651.254Z" fill="#FFB6B6"/>
<path d="M316.877 663.998L279.837 694.511L279.466 694.023C276.444 690.038 275.064 684.966 275.63 679.921C276.197 674.876 278.663 670.273 282.486 667.122L282.487 667.122L285.195 656.199L301.877 651.149L305.11 648.485L316.877 663.998Z" fill="#2F2E41"/>
<path d="M199.434 390.216L198.497 408.226L203.056 413.965L202.534 431.979L206.957 443.769L210.068 481.279L253.639 637.793L292.903 624.669L250.028 478.771L301.613 477.428L303.358 395.161L294.217 376.745L199.434 390.216Z" fill="#2F2E41"/>
<path d="M296.652 465.026L301.613 477.428L282.43 652.066L255.516 654.115L243.894 458.874L296.652 465.026Z" fill="#2F2E41"/>
<path d="M270.274 207.668L261.436 194.92L232.899 196.112L232.352 205.928L213.395 392.517L232.011 392.082L255.121 397.705L299.57 381.493L270.274 207.668Z" fill="#228BE6"/>
<path d="M220.715 395.967H176.95L188.368 311.981L192.998 277.938C192.998 277.938 189.72 253.607 188.134 240.895C187.986 239.539 188.212 238.166 188.784 236.938C189.303 235.788 189.981 234.722 190.796 233.776C196.119 227.379 208.092 221.832 215.6 218.796C219.467 217.243 222.154 216.348 222.154 216.348L232.35 205.931C246.985 224.985 220.715 395.967 220.715 395.967Z" fill="#3F3D56"/>
<path d="M264.731 200.731L278.615 209.023C278.615 209.023 319.734 216.061 323.732 232.154L308.597 279.765V379.828L271.904 395.161C271.904 395.161 240.253 233.503 264.731 200.731Z" fill="#3F3D56"/>
<path opacity="0.4" d="M250.677 454.831L243.894 536.711L255.444 632.006" fill="black"/>
<path d="M86.8988 302.296C88.0297 301.449 89.3251 300.871 90.6937 300.602C92.0623 300.334 93.4708 300.381 94.8201 300.74C96.1693 301.1 97.4264 301.764 98.5029 302.685C99.5794 303.606 100.449 304.761 101.05 306.07L134.69 302.106L126.717 318.447L95.9946 319.707C93.8174 320.614 91.3965 320.658 89.1906 319.829C86.9846 319.001 85.147 317.358 84.0258 315.212C82.9046 313.066 82.5778 310.566 83.1073 308.185C83.6368 305.805 84.9859 303.71 86.8989 302.297L86.8988 302.296Z" fill="#FFB6B6"/>
<path d="M228.087 230.742L237.713 236.735L183.799 315.883L117.993 321.71L115.373 302.131L163.858 286.972L187.824 238.564L228.087 230.742Z" fill="#3F3D56"/>
<path d="M424.304 295.606C423.173 294.759 421.878 294.181 420.509 293.912C419.141 293.643 417.732 293.69 416.383 294.05C415.034 294.41 413.777 295.074 412.7 295.994C411.624 296.915 410.754 298.071 410.153 299.38L376.513 295.415L384.486 311.757L415.209 313.016C417.386 313.924 419.807 313.967 422.013 313.139C424.218 312.31 426.056 310.668 427.177 308.522C428.299 306.375 428.625 303.875 428.096 301.495C427.566 299.115 426.217 297.019 424.304 295.606V295.606Z" fill="#FFB6B6"/>
<path d="M283.115 224.052L273.49 230.045L327.404 309.193L393.21 315.019L395.83 295.44L347.345 280.282L323.379 231.874L283.115 224.052Z" fill="#3F3D56"/>
<path d="M152.038 205.428V204.382H135.21V179.98H134.209V204.382H114.923V185.537C114.586 185.813 114.253 186.098 113.925 186.39V204.382H101.187C101.045 204.728 100.909 205.076 100.78 205.428H113.925V225.933H97.604C97.6194 226.284 97.6426 226.63 97.671 226.979H113.925V243.337H101.748C101.897 243.688 102.054 244.034 102.219 244.378H113.925V258.129H114.923V244.378H134.209V258.129H135.21V244.378H152.038V243.337H135.21C135.21 241.189 135.615 239.061 136.404 237.077C137.193 235.092 138.349 233.288 139.807 231.769C141.265 230.25 142.995 229.045 144.9 228.223C146.805 227.401 148.846 226.978 150.908 226.979H152.038V225.933H135.21V205.428H152.038ZM134.209 243.337H114.923V226.979H134.209V243.337ZM134.209 225.933H114.923V225.522C114.923 222.883 115.422 220.27 116.392 217.832C117.361 215.394 118.782 213.179 120.572 211.313C122.363 209.447 124.489 207.967 126.829 206.957C129.169 205.947 131.676 205.428 134.209 205.428V225.933Z" fill="#E6E6E6"/>
<path d="M298.24 60.6492C298.109 60.7056 297.961 60.7055 297.83 60.6488C297.699 60.5921 297.595 60.4834 297.54 60.3467L296.147 56.8379C296.092 56.701 296.092 56.5473 296.147 56.4105C296.201 56.2737 296.306 56.165 296.437 56.1084C296.568 56.0517 296.716 56.0518 296.847 56.1085C296.978 56.1652 297.083 56.274 297.137 56.4108L298.53 59.9196C298.585 60.0565 298.584 60.2102 298.53 60.3469C298.476 60.4837 298.371 60.5924 298.24 60.6492Z" fill="#3F3D56"/>
<path d="M326.346 34.6555L322.187 24.182C321.871 23.386 321.407 22.6626 320.823 22.0532C320.238 21.4439 319.545 20.9604 318.781 20.6304C318.017 20.3005 317.199 20.1305 316.372 20.1302C315.545 20.13 314.727 20.2994 313.963 20.6288V20.6288L292.669 29.8114C291.906 30.1408 291.211 30.6238 290.627 31.2328C290.042 31.8417 289.578 32.5648 289.261 33.3606C288.945 34.1564 288.782 35.0095 288.781 35.871C288.781 36.7325 288.944 37.5856 289.26 38.3816V38.3816L312.077 95.8397C312.393 96.6358 312.857 97.3591 313.441 97.9685C314.026 98.5779 314.719 99.0614 315.483 99.3913C316.247 99.7213 317.065 99.8912 317.892 99.8915C318.719 99.8918 319.537 99.7224 320.301 99.393V99.393L341.595 90.2104C342.359 89.8809 343.053 89.398 343.637 88.789C344.222 88.18 344.686 87.457 345.003 86.6611C345.319 85.8653 345.483 85.0123 345.483 84.1508C345.483 83.2893 345.32 82.4362 345.004 81.6401V81.6401L329.307 42.1107C329.355 42.0899 329.399 42.0594 329.435 42.021C329.472 41.9826 329.502 41.937 329.522 41.8868C329.542 41.8366 329.552 41.7828 329.552 41.7285C329.552 41.6741 329.542 41.6203 329.522 41.5701L326.865 34.8796C326.845 34.8294 326.816 34.7838 326.779 34.7453C326.742 34.7069 326.698 34.6764 326.65 34.6556C326.602 34.6348 326.55 34.624 326.498 34.624C326.446 34.624 326.394 34.6347 326.346 34.6555V34.6555Z" fill="#3F3D56"/>
<path d="M320.965 24.7563L343.75 82.1318C344.223 83.3235 344.227 84.6618 343.759 85.856C343.291 87.0502 342.39 88.0038 341.251 88.5095C341.237 88.5189 341.221 88.5268 341.205 88.533L319.808 97.7603C318.656 98.2571 317.361 98.2565 316.209 97.7587C315.057 97.2609 314.142 96.3067 313.664 95.1058L290.88 37.7303C290.644 37.1357 290.523 36.4985 290.523 35.8551C290.523 35.2117 290.645 34.5747 290.882 33.9805C291.119 33.3862 291.465 32.8464 291.902 32.3918C292.339 31.9372 292.858 31.5767 293.428 31.3309L296.023 30.2119C296.025 30.594 296.117 30.9698 296.291 31.3061C296.465 31.6424 296.716 31.9289 297.021 32.1404C297.327 32.3518 297.677 32.4817 298.042 32.5185C298.407 32.5553 298.775 32.498 299.114 32.3515L311.313 27.0908C311.579 26.9757 311.821 26.8067 312.024 26.5935C312.233 26.3791 312.399 26.1238 312.513 25.8422C312.627 25.5606 312.687 25.2583 312.689 24.9527C312.691 24.647 312.634 24.344 312.524 24.061C312.413 23.778 312.249 23.5206 312.043 23.3036L314.825 22.1037C315.977 21.6072 317.271 21.6077 318.422 22.1051C319.573 22.6026 320.488 23.5562 320.965 24.7563Z" fill="#228BE6"/>
<path d="M295.863 54.6636C295.732 54.72 295.584 54.7199 295.453 54.6632C295.322 54.6065 295.218 54.4978 295.163 54.3611L293.77 50.8523C293.715 50.7154 293.715 50.5617 293.77 50.4249C293.824 50.2881 293.929 50.1794 294.06 50.1228C294.191 50.0661 294.339 50.0662 294.47 50.1229C294.601 50.1796 294.706 50.2884 294.76 50.4252L296.153 53.934C296.208 54.0709 296.207 54.2246 296.153 54.3613C296.099 54.4981 295.994 54.6068 295.863 54.6636V54.6636Z" fill="#3F3D56"/>
<path d="M293.06 47.895C292.928 47.9515 292.781 47.9513 292.65 47.8946C292.518 47.8379 292.414 47.7293 292.36 47.5926L290.966 44.0838C290.939 44.0159 290.925 43.9432 290.925 43.8697C290.925 43.7962 290.938 43.7234 290.965 43.6555C290.992 43.5875 291.032 43.5258 291.082 43.4738C291.131 43.4218 291.191 43.3806 291.256 43.3525C291.321 43.3244 291.391 43.31 291.461 43.3101C291.532 43.3101 291.602 43.3247 291.667 43.353C291.732 43.3813 291.791 43.4226 291.841 43.4747C291.89 43.5269 291.93 43.5887 291.957 43.6567L293.35 47.1655C293.404 47.3024 293.404 47.456 293.35 47.5928C293.295 47.7295 293.191 47.8382 293.06 47.895Z" fill="#3F3D56"/>
<path d="M300.903 28.799C300.849 28.6621 300.849 28.5084 300.904 28.3717C300.958 28.2349 301.062 28.1262 301.194 28.0694L304.561 26.6174C304.692 26.5608 304.84 26.5608 304.971 26.6175C305.102 26.6743 305.206 26.783 305.261 26.9199C305.315 27.0567 305.315 27.2105 305.261 27.3473C305.206 27.4841 305.102 27.5928 304.971 27.6494L301.603 29.1014C301.472 29.1579 301.325 29.1577 301.193 29.101C301.062 29.0443 300.958 28.9357 300.903 28.799V28.799Z" fill="white"/>
<path d="M306.647 26.8804C306.943 26.8804 307.183 26.6304 307.183 26.322C307.183 26.0136 306.943 25.7635 306.647 25.7635C306.351 25.7635 306.111 26.0136 306.111 26.322C306.111 26.6304 306.351 26.8804 306.647 26.8804Z" fill="white"/>
<path d="M422.871 274.669C422.803 274.669 422.736 274.668 422.667 274.665C421.872 274.635 421.094 274.405 420.402 273.995C419.71 273.584 419.123 273.006 418.692 272.309C415.459 267.274 411.492 262.795 406.933 259.036C404.174 256.737 401.29 254.6 398.502 252.533C391.308 247.203 384.533 242.183 380.773 235.246C372.573 220.12 382.229 199.052 396.024 189.603C411.496 179.006 431.848 177.344 451.536 177.126C453.582 177.104 455.629 177.092 457.678 177.093C493.151 177.107 528.55 180.48 563.438 187.17C575.039 189.4 587.182 192.133 596.94 198.763C606.64 205.355 612.537 215.735 611.961 225.209C611.122 239.039 597.053 249.373 584.242 252.075C572.031 254.648 559.346 252.909 545.916 251.067C542.952 250.661 539.886 250.241 536.855 249.876C503.91 245.907 442.021 258.138 439.403 258.661L436.805 259.179L426.726 272.696C426.273 273.312 425.689 273.81 425.02 274.153C424.351 274.495 423.616 274.672 422.871 274.669V274.669Z" fill="#228BE6"/>
<path d="M569.578 207.201H430.331C429.527 207.201 428.757 206.868 428.189 206.276C427.62 205.684 427.301 204.881 427.301 204.044C427.301 203.206 427.62 202.403 428.189 201.811C428.757 201.219 429.527 200.886 430.331 200.886H569.578C570.381 200.886 571.152 201.219 571.72 201.811C572.288 202.403 572.607 203.206 572.607 204.044C572.607 204.881 572.288 205.684 571.72 206.276C571.152 206.868 570.381 207.201 569.578 207.201V207.201Z" fill="white"/>
<path d="M569.578 226.58H430.331C429.529 226.58 428.759 226.248 428.191 225.656C427.623 225.065 427.304 224.263 427.303 223.426C427.302 222.59 427.62 221.787 428.186 221.194C428.753 220.602 429.522 220.268 430.325 220.266H569.578C570.381 220.267 571.15 220.6 571.717 221.192C572.284 221.784 572.603 222.587 572.603 223.423C572.603 224.259 572.284 225.062 571.717 225.653C571.15 226.245 570.381 226.579 569.578 226.58Z" fill="white"/>
<path d="M446.558 245.959H430.331C429.528 245.957 428.759 245.624 428.192 245.032C427.625 244.44 427.307 243.638 427.307 242.802C427.307 241.965 427.625 241.163 428.192 240.571C428.759 239.979 429.528 239.646 430.331 239.645H446.558C447.361 239.646 448.13 239.979 448.697 240.571C449.264 241.163 449.583 241.965 449.583 242.802C449.583 243.638 449.264 244.44 448.697 245.032C448.13 245.624 447.361 245.957 446.558 245.959V245.959Z" fill="white"/>
<path d="M424.59 296.68C432.724 296.68 439.317 289.809 439.317 281.333C439.317 272.858 432.724 265.987 424.59 265.987C416.457 265.987 409.863 272.858 409.863 281.333C409.863 289.809 416.457 296.68 424.59 296.68Z" fill="white"/>
<path d="M424.59 296.867C421.642 296.867 418.76 295.956 416.309 294.249C413.857 292.543 411.947 290.116 410.818 287.278C409.69 284.44 409.395 281.316 409.97 278.303C410.545 275.29 411.965 272.522 414.05 270.349C416.134 268.177 418.791 266.697 421.682 266.098C424.574 265.498 427.571 265.806 430.295 266.982C433.019 268.157 435.347 270.149 436.985 272.703C438.623 275.258 439.497 278.261 439.497 281.333C439.493 285.452 437.921 289.4 435.126 292.312C432.331 295.225 428.542 296.863 424.59 296.867V296.867Z" fill="#3F3D56"/>
<path d="M423.488 287.467C423.456 287.467 423.425 287.466 423.394 287.464C423.116 287.45 422.845 287.374 422.599 287.24C422.352 287.107 422.136 286.92 421.966 286.691L419.505 283.394C419.349 283.186 419.235 282.948 419.168 282.694C419.101 282.439 419.082 282.174 419.113 281.912C419.145 281.65 419.225 281.398 419.35 281.168C419.476 280.939 419.643 280.738 419.843 280.576L419.931 280.504C420.131 280.342 420.359 280.223 420.603 280.153C420.847 280.083 421.102 280.063 421.353 280.096C421.605 280.129 421.847 280.213 422.067 280.343C422.287 280.474 422.48 280.648 422.636 280.856C422.76 281.023 422.917 281.159 423.097 281.256C423.276 281.353 423.474 281.409 423.676 281.419C423.878 281.429 424.08 281.394 424.268 281.316C424.455 281.237 424.625 281.117 424.764 280.964L429.761 275.467C430.113 275.081 430.597 274.856 431.108 274.841C431.619 274.827 432.114 275.024 432.485 275.39L432.567 275.471C432.751 275.652 432.899 275.87 433.002 276.11C433.105 276.351 433.162 276.611 433.168 276.874C433.175 277.138 433.132 277.401 433.042 277.647C432.951 277.893 432.815 278.118 432.641 278.31L424.886 286.84C424.706 287.038 424.489 287.195 424.249 287.303C424.008 287.411 423.749 287.467 423.488 287.467Z" fill="white"/>
<path d="M149.608 82.9543L140.599 26.4915C140.417 25.3485 140.679 24.1773 141.325 23.2348C141.972 22.2924 142.951 21.6556 144.047 21.4643L184.967 14.3735C186.064 14.1848 187.188 14.4572 188.092 15.1309C188.997 15.8046 189.608 16.8246 189.791 17.9672L198.801 74.43C198.982 75.573 198.721 76.7442 198.074 77.6867C197.428 78.6291 196.449 79.2659 195.353 79.4572L154.433 86.548C153.336 86.7368 152.212 86.4644 151.307 85.7907C150.403 85.117 149.792 84.0969 149.608 82.9543Z" fill="#3F3D56"/>
<path d="M150.026 65.3562L144.233 29.0569C144.064 27.9864 144.308 26.8895 144.914 26.0068C145.519 25.1242 146.436 24.5279 147.463 24.3487L182.63 18.2547C183.657 18.0779 184.71 18.333 185.557 18.9639C186.404 19.5949 186.976 20.5502 187.148 21.6203L195.166 71.8644C195.335 72.9349 195.091 74.0318 194.485 74.9145C193.88 75.7971 192.963 76.3934 191.936 76.5726L170.151 80.3477C165.575 81.1351 160.886 79.9989 157.113 77.1884C153.341 74.378 150.792 70.1227 150.026 65.3562V65.3562Z" fill="white"/>
<path d="M151.544 38.1983C151.378 37.1523 151.617 36.0804 152.209 35.2179C152.8 34.3554 153.696 33.7726 154.7 33.5976L179.095 29.3702C179.592 29.2841 180.101 29.3008 180.592 29.4195C181.082 29.5381 181.546 29.7564 181.956 30.0618C182.366 30.3672 182.714 30.7537 182.981 31.1994C183.247 31.645 183.427 32.141 183.51 32.659C183.593 33.1771 183.577 33.707 183.463 34.2186C183.349 34.7301 183.139 35.2133 182.846 35.6406C182.553 36.0678 182.182 36.4307 181.755 36.7085C181.327 36.9863 180.851 37.1737 180.354 37.2598L155.959 41.4872C154.955 41.6599 153.926 41.4107 153.098 40.7941C152.271 40.1776 151.712 39.244 151.544 38.1983V38.1983Z" fill="#228BE6"/>
<path d="M153.502 50.4711C153.336 49.425 153.575 48.3531 154.167 47.4906C154.759 46.6281 155.655 46.0454 156.658 45.8703L181.053 41.6429C182.057 41.469 183.087 41.7177 183.915 42.3345C184.743 42.9513 185.301 43.8855 185.468 44.9318C185.635 45.978 185.397 47.0505 184.805 47.9133C184.213 48.7761 183.316 49.3586 182.312 49.5325L157.917 53.7599C156.913 53.9327 155.885 53.6834 155.057 53.0669C154.229 52.4503 153.67 51.5168 153.502 50.4711Z" fill="#228BE6"/>
<path d="M155.46 62.7438C155.294 61.6977 155.533 60.6258 156.125 59.7633C156.717 58.9008 157.613 58.3181 158.616 58.143L183.011 53.9156C183.509 53.8295 184.017 53.8462 184.508 53.9649C184.999 54.0835 185.463 54.3018 185.873 54.6072C186.283 54.9126 186.631 55.2991 186.897 55.7448C187.164 56.1904 187.344 56.6864 187.426 57.2045C187.509 57.7225 187.493 58.2524 187.379 58.764C187.265 59.2756 187.056 59.7588 186.763 60.186C186.47 60.6132 186.099 60.9761 185.671 61.2539C185.244 61.5318 184.768 61.7191 184.27 61.8052L159.875 66.0326C158.871 66.2054 157.843 65.9561 157.015 65.3396C156.187 64.723 155.628 63.7895 155.46 62.7438V62.7438Z" fill="#228BE6"/>
<path d="M363.406 657.186L364.054 641.989C370.816 638.223 378.357 636.234 386.023 636.194C375.472 645.183 376.79 662.512 369.637 674.601C367.378 678.353 364.338 681.528 360.742 683.889C357.145 686.251 353.085 687.739 348.862 688.243L340.032 693.877C338.821 686.838 339.088 679.61 340.815 672.689C342.543 665.769 345.689 659.32 350.038 653.789C352.508 650.711 355.339 647.97 358.466 645.629C360.581 651.44 363.406 657.186 363.406 657.186Z" fill="#F2F2F2"/>
<path d="M480.476 695.515C480.477 695.711 480.44 695.904 480.369 696.084C480.297 696.265 480.192 696.429 480.06 696.567C479.928 696.704 479.77 696.814 479.597 696.888C479.424 696.963 479.239 697.001 479.051 697H95.6267C95.2489 697 94.8866 696.844 94.6194 696.565C94.3522 696.287 94.2021 695.909 94.2021 695.515C94.2021 695.122 94.3522 694.744 94.6194 694.466C94.8866 694.187 95.2489 694.031 95.6267 694.031H479.051C479.239 694.03 479.424 694.068 479.597 694.143C479.77 694.217 479.928 694.326 480.06 694.464C480.192 694.602 480.297 694.766 480.369 694.947C480.44 695.127 480.477 695.32 480.476 695.515Z" fill="#CCCCCC"/>
<path d="M96.5509 294.649C89.7507 294.508 53.2239 293.415 47.234 293.684C46.8952 292.448 35.5402 307.612 35.2641 307.706C35.08 307.908 34.9457 308.154 34.8726 308.422C34.7995 308.691 34.7898 308.973 34.8443 309.246C34.8988 309.519 35.0159 309.775 35.1856 309.99C35.3553 310.206 35.5725 310.376 35.8188 310.485C36.4863 310.907 95.3724 309.772 96.0858 309.92C96.3945 309.915 96.6954 309.819 96.9541 309.644C97.2127 309.468 97.4185 309.22 97.5476 308.928L97.9412 308.009C97.9821 306.438 98.4758 298.406 98.0326 297.032C98.1414 296.775 98.187 296.493 98.1653 296.212C98.1437 295.931 98.0554 295.661 97.9085 295.424C97.7616 295.188 97.5606 294.993 97.3236 294.858C97.0867 294.723 96.8211 294.651 96.5509 294.649V294.649Z" fill="#3F3D56"/>
<path opacity="0.17" d="M97.9409 308.008C97.5953 308.873 97.1532 309.961 96.0855 309.921L36.4403 310.618C36.1582 310.615 35.8816 310.536 35.6372 310.389C35.3928 310.242 35.1887 310.033 35.0445 309.78C34.9003 309.527 34.821 309.24 34.814 308.946C34.807 308.652 34.8727 308.361 35.0046 308.102L97.9409 308.008Z" fill="black"/>
<path d="M47.5127 293.498C46.8707 292.341 30.9246 210.118 29.5937 209.43L18.7065 195.552L17.7334 194.789C16.3803 194.014 13.1344 194.538 13.4267 196.692C15.9844 209.471 32.4357 282.251 32.7962 293.598L34.7766 308.053C34.8119 308.299 34.8963 308.535 35.0243 308.745C35.1523 308.955 35.3211 309.134 35.5199 309.272C35.7186 309.41 35.9428 309.503 36.178 309.544C36.4133 309.586 36.6544 309.577 36.8858 309.515C37.4534 309.452 37.9953 309.235 38.4581 308.886C38.9208 308.538 39.2885 308.07 39.5248 307.528C39.6732 307.018 48.2582 293.794 47.5127 293.498Z" fill="#3F3D56"/>
<path opacity="0.17" d="M18.7038 195.552L39.5267 307.531C38.8304 309.368 35.5719 310.655 34.8129 308.245C34.7997 308.242 13.4509 196.761 13.4292 196.694C13.2017 194.011 17.456 193.926 18.7038 195.552Z" fill="black"/>
<path d="M19.3311 200.131L29.907 215.492L41.777 274.238L36.2584 279.254L19.3311 200.131Z" fill="#228BE6"/>
<path d="M89.7241 302.57L92.6499 302.694C92.6957 301.801 92.8372 300.916 93.0718 300.056C93.512 297.877 93.9064 295.287 92.0813 295.297C90.8431 295.172 90.4212 296.807 90.201 298.584C90.1443 299.924 89.9848 301.257 89.7241 302.57V302.57Z" fill="#2F2E41"/>
<path d="M72.9399 298.47L74.9119 298.546L75.8657 298.584C75.8474 297.495 76.3335 295.249 75.1503 294.694C74.9621 294.61 74.759 294.568 74.5541 294.57C73.4444 294.503 73.1142 295.383 73.0133 296.396C72.9491 297.007 72.9766 297.657 72.9583 298.164C72.9582 298.269 72.9491 298.374 72.9399 298.47Z" fill="#2F2E41"/>
<path d="M67.0977 298.221L69.0787 298.307L70.0234 298.346C70.0051 297.093 70.6379 294.36 68.7118 294.322C66.9325 294.217 67.1618 296.577 67.1159 297.915C67.116 298.021 67.1068 298.126 67.0977 298.221Z" fill="#2F2E41"/>
<path d="M61.2554 297.982L63.2273 298.059L64.1812 298.097C64.1628 296.854 64.7956 294.121 62.8696 294.083C61.0903 293.968 61.3196 296.329 61.2737 297.676C61.2737 297.782 61.2645 297.887 61.2554 297.982Z" fill="#2F2E41"/>
<path d="M55.4126 297.734L57.3937 297.82L58.3384 297.858C58.32 296.606 58.9529 293.882 57.0268 293.834C55.2475 293.729 55.4768 296.09 55.4309 297.428C55.4309 297.533 55.4218 297.638 55.4126 297.734Z" fill="#2F2E41"/>
<path d="M49.5703 297.495L51.5422 297.571L52.4961 297.609C52.4778 296.463 53.0097 294.064 51.5973 293.653H51.5881C51.4571 293.612 51.3211 293.593 51.1845 293.595C51.018 293.58 50.8502 293.596 50.6893 293.643H50.6801C49.4511 293.978 49.6253 295.985 49.5886 297.189C49.5887 297.294 49.5795 297.399 49.5703 297.495Z" fill="#2F2E41"/>
<path d="M83.8271 296.845L86.7529 296.969C86.7529 296.854 86.7529 296.73 86.7621 296.587C86.8345 295.86 86.8468 295.127 86.7988 294.398C86.6979 293.595 86.3677 292.965 85.4414 292.945C84.4967 292.888 84.1206 293.519 83.9739 294.331C83.9398 294.469 83.9153 294.61 83.9005 294.752V294.761C83.8271 295.507 83.873 296.31 83.8271 296.845Z" fill="#2F2E41"/>
<path d="M77.9844 296.596L80.9102 296.721C80.9722 295.9 80.9906 295.077 80.9652 294.255C80.8826 293.414 80.5616 292.726 79.5986 292.706C78.6263 292.639 78.2504 293.328 78.1036 294.178C77.966 295 78.0394 295.985 77.9844 296.596Z" fill="#2F2E41"/>
<path d="M72.1421 296.358L73.0134 296.396L75.0679 296.482C75.0587 296.023 75.1412 295.354 75.1504 294.694C75.1582 294.497 75.1521 294.299 75.1321 294.102C75.0587 293.213 74.756 292.477 73.7563 292.458C72.7382 292.401 72.3805 293.137 72.2522 294.035C72.1237 294.838 72.1971 295.765 72.1421 296.358Z" fill="#2F2E41"/>
<path d="M83.8818 302.331L86.8076 302.446C86.7985 301.203 87.4221 298.47 85.496 298.432C83.57 298.307 83.9919 301.079 83.8818 302.331Z" fill="#2F2E41"/>
<path d="M78.0396 302.083L80.9653 302.207C80.9562 300.955 81.5799 298.221 79.6538 298.183C77.7277 298.068 78.1496 300.84 78.0396 302.083Z" fill="#2F2E41"/>
<path d="M72.1973 301.843L75.1231 301.958C75.1139 301.069 75.4349 299.425 74.9121 298.546C74.798 298.351 74.6355 298.193 74.4416 298.087C74.2478 297.98 74.03 297.931 73.8115 297.944C73.5112 297.911 73.2093 297.989 72.9585 298.164C72.023 298.804 72.289 300.83 72.1973 301.843Z" fill="#2F2E41"/>
<path d="M66.355 301.595L69.2808 301.719C69.2716 300.83 69.5834 299.196 69.079 298.307C68.9651 298.109 68.8015 297.948 68.6059 297.84C68.4103 297.732 68.1901 297.682 67.9692 297.695C67.6689 297.661 67.3665 297.739 67.1162 297.915C66.1807 298.575 66.4467 300.591 66.355 301.595Z" fill="#2F2E41"/>
<path d="M60.5122 301.356L63.438 301.471C63.4288 300.582 63.7498 298.938 63.227 298.059C63.113 297.864 62.9504 297.705 62.7566 297.599C62.5628 297.493 62.345 297.444 62.1264 297.457C61.8262 297.423 61.5243 297.501 61.2734 297.676C60.338 298.317 60.604 300.343 60.5122 301.356Z" fill="#2F2E41"/>
<path d="M54.6699 301.108L57.5957 301.232C57.5865 300.343 57.8984 298.709 57.3939 297.82C57.2809 297.621 57.1174 297.459 56.9216 297.351C56.7258 297.243 56.5052 297.194 56.2842 297.208C55.9838 297.174 55.6815 297.252 55.4312 297.428C54.4956 298.087 54.7617 300.104 54.6699 301.108Z" fill="#2F2E41"/>
<path d="M48.8276 300.869L51.7534 300.983C51.7443 300.094 52.0561 298.46 51.5425 297.571C51.4293 297.376 51.2668 297.216 51.0728 297.11C50.8788 297.004 50.6606 296.955 50.4418 296.969C50.1416 296.936 49.8397 297.014 49.5889 297.189C48.6534 297.839 48.9194 299.855 48.8276 300.869Z" fill="#2F2E41"/>
</g>
<defs>
<clipPath id="clip0_58_115">
<rect width="611.517" height="697" fill="white" transform="translate(0.48291)"/>
</clipPath>
</defs>
</svg>
