<svg xmlns="http://www.w3.org/2000/svg" xmlns:xlink="http://www.w3.org/1999/xlink" width="100" zoomAndPan="magnify" viewBox="0 0 75 30.000001" height="40" preserveAspectRatio="xMidYMid meet" version="1.0"><defs><g/></defs><g fill="#000000" fill-opacity="1"><g transform="translate(3.342363, 19.969914)"><g><path d="M 7.71875 -8.171875 L 2.890625 -8.171875 L 2.890625 -5.390625 L 7.265625 -5.390625 L 7.265625 -3.953125 L 2.890625 -3.953125 L 2.890625 0 L 1.265625 0 L 1.265625 -9.625 L 7.734375 -9.625 Z M 7.71875 -8.171875 "/></g></g></g><g fill="#000000" fill-opacity="1"><g transform="translate(11.251018, 19.969914)"><g><path d="M 2.890625 0 L 1.265625 0 L 1.265625 -9.625 L 2.890625 -9.625 Z M 2.890625 0 "/></g></g></g><g fill="#000000" fill-opacity="1"><g transform="translate(15.40478, 19.969914)"><g><path d="M 9.609375 0 L 8.015625 0 L 2.890625 -6.90625 L 2.890625 0 L 1.265625 0 L 1.265625 -9.625 L 2.859375 -9.625 L 8.015625 -2.703125 L 8.015625 -9.625 L 9.609375 -9.625 Z M 9.609375 0 "/></g></g></g><g fill="#000000" fill-opacity="1"><g transform="translate(26.298095, 19.969914)"><g><path d="M 1.265625 -9.625 L 5.21875 -9.625 C 6.65625 -9.625 7.84375 -9.171875 8.78125 -8.265625 C 9.71875 -7.359375 10.1875 -6.207031 10.1875 -4.8125 C 10.1875 -3.414062 9.710938 -2.265625 8.765625 -1.359375 C 7.828125 -0.453125 6.628906 0 5.171875 0 L 1.265625 0 Z M 2.890625 -8.171875 L 2.890625 -1.453125 L 5.25 -1.453125 C 6.195312 -1.453125 6.984375 -1.765625 7.609375 -2.390625 C 8.234375 -3.023438 8.546875 -3.828125 8.546875 -4.796875 C 8.546875 -5.765625 8.222656 -6.566406 7.578125 -7.203125 C 6.929688 -7.847656 6.132812 -8.171875 5.1875 -8.171875 Z M 2.890625 -8.171875 "/></g></g></g><g fill="#000000" fill-opacity="1"><g transform="translate(36.957589, 19.969914)"><g/></g></g><g fill="#00a8ff" fill-opacity="1"><g transform="translate(40.50547, 19.969914)"><g><path d="M 5.53125 -9.703125 C 7.019531 -9.703125 8.257812 -9.238281 9.25 -8.3125 C 10.238281 -7.382812 10.734375 -6.222656 10.734375 -4.828125 C 10.734375 -3.421875 10.234375 -2.242188 9.234375 -1.296875 C 8.242188 -0.359375 7.003906 0.109375 5.515625 0.109375 C 4.035156 0.109375 2.800781 -0.359375 1.8125 -1.296875 C 0.820312 -2.234375 0.328125 -3.410156 0.328125 -4.828125 C 0.328125 -6.234375 0.820312 -7.394531 1.8125 -8.3125 C 2.800781 -9.238281 4.039062 -9.703125 5.53125 -9.703125 Z M 5.5625 -7.65625 C 4.800781 -7.65625 4.15625 -7.378906 3.625 -6.828125 C 3.09375 -6.285156 2.828125 -5.613281 2.828125 -4.8125 C 2.828125 -4.007812 3.09375 -3.328125 3.625 -2.765625 C 4.164062 -2.210938 4.804688 -1.9375 5.546875 -1.9375 C 6.296875 -1.9375 6.925781 -2.210938 7.4375 -2.765625 C 7.957031 -3.328125 8.21875 -4.007812 8.21875 -4.8125 C 8.21875 -5.613281 7.957031 -6.285156 7.4375 -6.828125 C 6.925781 -7.378906 6.300781 -7.65625 5.5625 -7.65625 Z M 5.5625 -7.65625 "/></g></g></g><g fill="#00a8ff" fill-opacity="1"><g transform="translate(51.577587, 19.969914)"><g><path d="M 9.84375 0 L 7.6875 0 L 3.265625 -5.921875 L 3.265625 0 L 0.96875 0 L 0.96875 -9.625 L 3.125 -9.625 L 7.5625 -3.6875 L 7.5625 -9.625 L 9.84375 -9.625 Z M 9.84375 0 "/></g></g></g><g fill="#00a8ff" fill-opacity="1"><g transform="translate(62.388376, 19.969914)"><g><path d="M 8.5 -7.703125 L 3.40625 -7.703125 L 3.40625 -5.78125 L 8 -5.78125 L 8 -3.859375 L 3.40625 -3.859375 L 3.40625 -1.921875 L 8.65625 -1.921875 L 8.65625 0 L 0.96875 0 L 0.96875 -9.625 L 8.5 -9.625 Z M 8.5 -7.703125 "/></g></g></g><g fill="#0097e6" fill-opacity="1"><g transform="translate(44.647524, 16.178104)"><g><path d="M 0.796875 -1.296875 C 0.941406 -1.453125 1.125 -1.53125 1.34375 -1.53125 C 1.570312 -1.53125 1.757812 -1.453125 1.90625 -1.296875 C 2.0625 -1.140625 2.140625 -0.945312 2.140625 -0.71875 C 2.140625 -0.476562 2.0625 -0.28125 1.90625 -0.125 C 1.757812 0.03125 1.570312 0.109375 1.34375 0.109375 C 1.125 0.109375 0.941406 0.03125 0.796875 -0.125 C 0.648438 -0.28125 0.578125 -0.476562 0.578125 -0.71875 C 0.578125 -0.945312 0.648438 -1.140625 0.796875 -1.296875 Z M 0.796875 -1.296875 "/></g></g></g></svg>